<svg width="35" height="35" viewBox="0 0 35 35" fill="none" xmlns="http://www.w3.org/2000/svg">
<path opacity="0.21" fill-rule="evenodd" clip-rule="evenodd" d="M35 17.5C35 27.165 27.165 35 17.5 35C7.83502 35 0 27.165 0 17.5C0 7.83502 7.83502 0 17.5 0C27.165 0 35 7.83502 35 17.5Z" fill="#FEC53D"/>
<path fill-rule="evenodd" clip-rule="evenodd" d="M8.75 14.1846L16.2753 18.5293C16.3563 18.5761 16.4413 18.6099 16.5278 18.6313V27.0577L9.2867 22.7724C8.95404 22.5756 8.75 22.2177 8.75 21.8312V14.1846ZM26.2499 14.0692V21.8312C26.2499 22.2178 26.0458 22.5756 25.7132 22.7725L18.4721 27.0578V18.5576C18.4898 18.5488 18.5072 18.5394 18.5245 18.5294L26.2499 14.0692V14.0692Z" fill="#FEC53D"/>
<path opacity="0.499209" fill-rule="evenodd" clip-rule="evenodd" d="M8.9863 12.0758C9.07822 11.9597 9.19423 11.8616 9.3295 11.7895L16.9857 7.71166C17.3072 7.54047 17.6927 7.54047 18.0141 7.71166L25.6703 11.7895C25.7746 11.8451 25.8674 11.9161 25.9466 11.9989L17.5524 16.8453C17.4972 16.8772 17.4463 16.9137 17.3999 16.954C17.3535 16.9137 17.3026 16.8772 17.2474 16.8453L8.9863 12.0758Z" fill="#FEC53D"/>
</svg>
