<svg width="35" height="35" viewBox="0 0 35 35" fill="none" xmlns="http://www.w3.org/2000/svg">
<path opacity="0.3" fill-rule="evenodd" clip-rule="evenodd" d="M35 17.5C35 27.165 27.165 35 17.5 35C7.83502 35 0 27.165 0 17.5C0 7.83502 7.83502 0 17.5 0C27.165 0 35 7.83502 35 17.5Z" fill="#FF9066"/>
<path opacity="0.78" fill-rule="evenodd" clip-rule="evenodd" d="M16.6919 14.0114C16.7089 13.7901 16.8935 13.6192 17.1154 13.6192V13.6192C17.3337 13.6192 17.5164 13.7846 17.5381 14.0017L17.8888 17.5081L20.4036 18.9451C20.5318 19.0184 20.611 19.1548 20.611 19.3025V19.3025C20.611 19.5739 20.3529 19.771 20.0911 19.6996L16.7319 18.7835C16.5005 18.7204 16.3465 18.5019 16.3649 18.2628L16.6919 14.0114Z" fill="#FF9066"/>
<path opacity="0.901274" fill-rule="evenodd" clip-rule="evenodd" d="M13.5204 9.0581C13.2563 8.74335 12.7464 8.86383 12.6511 9.26349L11.8592 12.5833C11.7815 12.9089 12.0396 13.2174 12.3739 13.1985L15.789 13.005C16.1999 12.9817 16.4083 12.4997 16.1437 12.1844L15.36 11.2504C16.0395 11.0183 16.7601 10.897 17.4999 10.897C21.1511 10.897 24.111 13.8569 24.111 17.5081C24.111 21.1593 21.1511 24.1192 17.4999 24.1192C13.8487 24.1192 10.8888 21.1593 10.8888 17.5081C10.8888 16.8951 10.9718 16.2948 11.1337 15.7178L9.63591 15.2977C9.43871 16.0007 9.33325 16.7421 9.33325 17.5081C9.33325 22.0184 12.9896 25.6748 17.4999 25.6748C22.0102 25.6748 25.6666 22.0184 25.6666 17.5081C25.6666 12.9978 22.0102 9.34142 17.4999 9.34142C16.3654 9.34142 15.2849 9.57276 14.3031 9.99083L13.5204 9.0581Z" fill="#FF9066"/>
</svg>
