<svg width="35" height="35" viewBox="0 0 35 35" fill="none" xmlns="http://www.w3.org/2000/svg">
<path opacity="0.21" fill-rule="evenodd" clip-rule="evenodd" d="M35 17.5C35 27.165 27.165 35 17.5 35C7.83502 35 0 27.165 0 17.5C0 7.83502 7.83502 0 17.5 0C27.165 0 35 7.83502 35 17.5Z" fill="#4AD991"/>
<path d="M11.1481 23.8519H24.7592C25.2604 23.8519 25.6666 24.2581 25.6666 24.7593C25.6666 25.2604 25.2604 25.6667 24.7592 25.6667H10.2407C9.73957 25.6667 9.33331 25.2604 9.33331 24.7593V10.2407C9.33331 9.7396 9.73957 9.33334 10.2407 9.33334C10.7419 9.33334 11.1481 9.7396 11.1481 10.2407V23.8519Z" fill="#4AD991"/>
<path opacity="0.5" d="M14.5323 19.9354C14.1896 20.301 13.6154 20.3196 13.2497 19.9768C12.8841 19.634 12.8656 19.0598 13.2084 18.6942L16.6112 15.0646C16.9426 14.711 17.4935 14.6803 17.8622 14.9949L20.5478 17.2867L24.047 12.8544C24.3576 12.4611 24.9282 12.3939 25.3215 12.7045C25.7149 13.015 25.782 13.5856 25.4715 13.9789L21.3881 19.1512C21.0692 19.5552 20.4784 19.6133 20.0869 19.2791L17.3429 16.9376L14.5323 19.9354Z" fill="#4AD991"/>
</svg>
