<svg width="35" height="35" viewBox="0 0 35 35" fill="none" xmlns="http://www.w3.org/2000/svg">
<path opacity="0.21" fill-rule="evenodd" clip-rule="evenodd" d="M35 17.5C35 27.165 27.165 35 17.5 35C7.83502 35 0 27.165 0 17.5C0 7.83502 7.83502 0 17.5 0C27.165 0 35 7.83502 35 17.5Z" fill="#8280FF"/>
<path opacity="0.587821" fill-rule="evenodd" clip-rule="evenodd" d="M12.0556 13.6111C12.0556 15.3293 13.4484 16.7222 15.1667 16.7222C16.8849 16.7222 18.2778 15.3293 18.2778 13.6111C18.2778 11.8929 16.8849 10.5 15.1667 10.5C13.4484 10.5 12.0556 11.8929 12.0556 13.6111ZM19.8333 16.7222C19.8333 18.0109 20.878 19.0556 22.1667 19.0556C23.4553 19.0556 24.5 18.0109 24.5 16.7222C24.5 15.4336 23.4553 14.3889 22.1667 14.3889C20.878 14.3889 19.8333 15.4336 19.8333 16.7222Z" fill="#8280FF"/>
<path fill-rule="evenodd" clip-rule="evenodd" d="M15.1537 18.2778C11.4815 18.2778 8.46865 20.1651 8.16718 23.8772C8.15076 24.0794 8.53745 24.5 8.73251 24.5H21.5808C22.165 24.5 22.1741 24.0298 22.165 23.8778C21.9371 20.0614 18.8776 18.2778 15.1537 18.2778ZM26.4102 24.5L23.4111 24.5C23.4111 22.7493 22.8327 21.1336 21.8565 19.8338C24.506 19.8628 26.6694 21.2023 26.8322 24.0333C26.8387 24.1474 26.8322 24.5 26.4102 24.5Z" fill="#8280FF"/>
</svg>
