<svg width="183" height="47" viewBox="0 0 183 47" fill="none" xmlns="http://www.w3.org/2000/svg">
<path d="M46.464 33.2656V10.7056H50.56V29.7776H61.376V33.2656H46.464ZM65.3928 14.2576V10.3536H69.8728V14.2576H65.3928ZM65.6488 33.2656V17.6176H69.6488V33.2656H65.6488ZM86.573 14.2576V10.3536H91.021V14.2576H86.573ZM76.461 33.2656V20.6256H73.453V17.6176H76.461V17.5856C76.461 15.367 77.037 13.6923 78.189 12.5616C79.3623 11.431 81.1757 10.791 83.629 10.6416L85.037 10.5776L85.229 13.5216L83.981 13.5856C82.701 13.671 81.7943 13.991 81.261 14.5456C80.7277 15.079 80.461 15.879 80.461 16.9456V17.6176H90.797V33.2656H86.797V20.6256H80.461V33.2656H76.461ZM101.175 33.2656L94.3915 17.6176H98.6475L102.999 28.5616L107.511 17.6176H111.511L104.631 33.2656H101.175ZM117.732 39.0256L120.612 32.6256L114.116 17.6176H118.372L122.756 28.5616L127.236 17.6176H131.268L121.86 39.0256H117.732ZM132.884 33.2656V28.8176H137.364V33.2656H132.884Z" fill="#34374E"/>
<mask id="mask0_54_357" style="mask-type:alpha" maskUnits="userSpaceOnUse" x="0" y="1" width="44" height="44">
<rect y="1" width="44" height="44" fill="#D9D9D9"/>
</mask>
<g mask="url(#mask0_54_357)">
<path d="M32.1668 39.5C31.6474 39.5 31.212 39.3243 30.8606 38.9729C30.5092 38.6215 30.3335 38.1861 30.3335 37.6667V35.8333C28.8057 35.8333 27.5071 35.2986 26.4377 34.2292C25.3682 33.1597 24.8335 31.8611 24.8335 30.3333V21.1667C24.8335 19.6389 25.3682 18.3403 26.4377 17.2708C27.5071 16.2014 28.8057 15.6667 30.3335 15.6667V12C30.3335 10.4722 30.8682 9.17361 31.9377 8.10417C33.0071 7.03472 34.3057 6.5 35.8335 6.5H54.1668C55.6946 6.5 56.9932 7.03472 58.0627 8.10417C59.1321 9.17361 59.6668 10.4722 59.6668 12V15.6667C61.1946 15.6667 62.4932 16.2014 63.5627 17.2708C64.6321 18.3403 65.1668 19.6389 65.1668 21.1667V30.3333C65.1668 31.8611 64.6321 33.1597 63.5627 34.2292C62.4932 35.2986 61.1946 35.8333 59.6668 35.8333V37.6667C59.6668 38.1861 59.4911 38.6215 59.1397 38.9729C58.7884 39.3243 58.3529 39.5 57.8335 39.5C57.314 39.5 56.8786 39.3243 56.5272 38.9729C56.1759 38.6215 56.0002 38.1861 56.0002 37.6667V35.8333H34.0002V37.6667C34.0002 38.1861 33.8245 38.6215 33.4731 38.9729C33.1217 39.3243 32.6863 39.5 32.1668 39.5ZM30.3335 32.1667H59.6668C60.1863 32.1667 60.6217 31.991 60.9731 31.6396C61.3245 31.2882 61.5002 30.8528 61.5002 30.3333V21.1667C61.5002 20.6472 61.3245 20.2118 60.9731 19.8604C60.6217 19.509 60.1863 19.3333 59.6668 19.3333C59.1474 19.3333 58.712 19.509 58.3606 19.8604C58.0092 20.2118 57.8335 20.6472 57.8335 21.1667V28.5H32.1668V21.1667C32.1668 20.6472 31.9911 20.2118 31.6397 19.8604C31.2884 19.509 30.8529 19.3333 30.3335 19.3333C29.8141 19.3333 29.3786 19.509 29.0272 19.8604C28.6759 20.2118 28.5002 20.6472 28.5002 21.1667V30.3333C28.5002 30.8528 28.6759 31.2882 29.0272 31.6396C29.3786 31.991 29.8141 32.1667 30.3335 32.1667ZM35.8335 24.8333H54.1668V21.1667C54.1668 20.3417 54.3349 19.5931 54.671 18.9208C55.0071 18.2486 55.4502 17.6528 56.0002 17.1333V12C56.0002 11.4806 55.8245 11.0451 55.4731 10.6938C55.1217 10.3424 54.6863 10.1667 54.1668 10.1667H35.8335C35.3141 10.1667 34.8786 10.3424 34.5272 10.6938C34.1759 11.0451 34.0002 11.4806 34.0002 12V17.1333C34.5502 17.6528 34.9932 18.2486 35.3293 18.9208C35.6654 19.5931 35.8335 20.3417 35.8335 21.1667V24.8333Z" fill="#1C1B1F"/>
</g>
</svg>
